<?xml version="1.0" standalone="no"?>
<!DOCTYPE svg PUBLIC "-//W3C//DTD SVG 20010904//EN"
 "http://www.w3.org/TR/2001/REC-SVG-20010904/DTD/svg10.dtd">
<svg version="1.0" xmlns="http://www.w3.org/2000/svg"
 width="600.000000pt" height="600.000000pt" viewBox="0 0 600.000000 600.000000"
 preserveAspectRatio="xMidYMid meet">

<g transform="translate(0.000000,600.000000) scale(0.100000,-0.100000)"
fill="#000000" stroke="none">
<path d="M3050 5836 c-91 -34 -149 -73 -229 -153 -45 -46 -84 -83 -86 -81 -1
2 -13 50 -27 108 -28 124 -26 123 -154 60 -150 -73 -271 -232 -321 -420 -22
-85 -22 -260 1 -355 22 -91 93 -236 149 -304 90 -108 221 -194 344 -226 62
-16 239 -20 262 -6 13 8 12 26 -5 83 -4 14 7 12 63 -14 86 -39 208 -61 289
-52 83 8 88 12 75 60 -17 62 -16 65 27 50 20 -7 53 -16 72 -20 l35 -6 0 -227
c1 -172 5 -251 18 -323 19 -102 53 -185 76 -185 15 0 18 9 92 243 l41 132 37
0 c66 0 114 -20 158 -66 l42 -43 66 71 c145 156 227 409 224 683 -2 155 59
108 -564 431 -302 157 -555 290 -561 297 -7 7 -21 55 -33 107 -31 135 -41 170
-49 169 -4 0 -23 -6 -42 -13z"/>
<path d="M1792 5042 c-77 -34 -82 -39 -77 -62 4 -14 8 -27 10 -29 2 -2 46 14
98 34 l95 38 -10 28 c-5 16 -15 29 -21 29 -7 0 -49 -17 -95 -38z"/>
<path d="M2666 4201 c-25 -27 -17 -72 15 -90 24 -13 29 -13 53 2 34 22 36 69
4 91 -30 21 -51 20 -72 -3z"/>
<path d="M2912 4204 c-41 -28 -18 -104 31 -104 23 0 57 36 57 60 0 22 -33 60
-53 60 -7 0 -23 -7 -35 -16z"/>
<path d="M3826 3643 c-23 -12 -49 -14 -107 -10 l-77 5 -27 -140 c-14 -77 -23
-143 -20 -147 11 -10 213 -7 225 5 7 7 6 28 -2 67 -11 53 -10 63 16 143 15 47
26 87 24 89 -1 2 -16 -4 -32 -12z"/>
<path d="M3098 3121 l-36 -89 23 -22 23 -21 11 63 c16 93 24 158 20 158 -2 0
-20 -40 -41 -89z"/>
<path d="M3286 3077 c-3 -34 -8 -161 -11 -282 l-5 -220 89 255 c48 140 94 268
100 283 l11 29 -26 -21 c-33 -26 -79 -27 -120 -2 l-32 19 -6 -61z"/>
<path d="M3727 2955 c-4 -66 -9 -140 -11 -165 -4 -37 1 -55 28 -103 l33 -58
-4 48 c-3 26 -12 127 -22 223 l-17 175 -7 -120z"/>
<path d="M3260 2530 c0 -13 7 -20 20 -20 13 0 20 7 20 20 0 13 -7 20 -20 20
-13 0 -20 -7 -20 -20z"/>
<path d="M3245 2430 c-4 -7 -3 -16 3 -22 14 -14 45 -2 40 15 -6 16 -34 21 -43
7z"/>
<path d="M3184 2389 c-4 -7 -31 -87 -60 -178 -41 -129 -51 -169 -41 -177 14
-13 164 -64 188 -64 10 0 19 11 22 28 4 20 22 39 61 65 31 20 59 37 64 37 4 0
22 -29 40 -65 l32 -65 -37 -24 -36 -25 24 -9 c108 -41 230 -75 238 -67 9 10
113 317 108 321 -1 1 -56 -40 -122 -92 -91 -71 -123 -90 -131 -81 -6 7 -32 42
-57 78 l-46 67 94 62 c52 35 95 64 95 66 0 5 -399 134 -414 134 -8 0 -18 -5
-22 -11z"/>
<path d="M3369 1825 c23 -14 48 -25 55 -25 6 0 31 -10 56 -22 36 -17 109 -47
116 -48 7 -1 8 72 2 76 -5 3 -52 12 -106 20 -53 7 -113 16 -132 19 l-35 6 44
-26z"/>
<path d="M3122 339 c-57 -15 -106 -30 -109 -33 -3 -3 -3 -13 1 -22 6 -15 18
-16 98 -10 50 3 117 6 148 6 l58 0 4 36 c4 35 3 36 -26 31 -17 -2 -40 1 -51 8
-16 9 -39 6 -123 -16z"/>
<path d="M3358 213 c-80 -21 -98 -29 -98 -44 0 -18 9 -19 133 -19 168 0 177 3
177 47 0 33 -1 34 -35 27 -23 -4 -35 -2 -35 5 0 16 -32 12 -142 -16z"/>
</g>
</svg>
