<?xml version="1.0" standalone="no"?>
<!DOCTYPE svg PUBLIC "-//W3C//DTD SVG 20010904//EN"
 "http://www.w3.org/TR/2001/REC-SVG-20010904/DTD/svg10.dtd">
<svg version="1.0" xmlns="http://www.w3.org/2000/svg"
 width="512.000000pt" height="512.000000pt" viewBox="0 0 512.000000 512.000000"
 preserveAspectRatio="xMidYMid meet">

<g transform="translate(0.000000,512.000000) scale(0.100000,-0.100000)"
fill="#000000" stroke="none">
<path d="M945 3629 c-297 -37 -589 -215 -756 -460 -61 -90 -126 -235 -156
-346 -23 -87 -26 -117 -26 -263 0 -146 3 -176 26 -263 117 -437 476 -751 922
-806 126 -15 3084 -15 3210 0 446 55 805 369 922 806 23 87 26 117 26 263 0
146 -3 176 -26 263 -117 438 -476 751 -922 806 -110 13 -3112 13 -3220 0z
m3178 -149 c645 -61 1031 -735 753 -1314 -119 -249 -324 -420 -593 -498 l-78
-23 -1645 0 -1645 0 -78 23 c-209 60 -389 185 -513 357 -55 76 -121 221 -146
321 -30 123 -30 323 1 439 25 94 83 219 141 304 143 212 402 365 659 390 129
12 3013 13 3144 1z"/>
<path d="M1452 3080 c-52 -12 -109 -56 -139 -107 -58 -98 -29 -232 64 -295 50
-35 103 -48 191 -48 83 0 112 -18 112 -70 0 -17 -9 -39 -20 -50 -18 -18 -33
-20 -180 -20 l-160 0 0 -81 0 -81 173 4 c153 3 176 5 212 25 84 45 125 112
125 203 0 66 -16 107 -59 153 -48 53 -97 70 -203 75 -79 4 -100 8 -114 23 -23
25 -22 73 1 99 16 18 33 20 179 22 l161 3 3 78 3 77 -158 -1 c-87 -1 -173 -5
-191 -9z"/>
<path d="M1960 3010 l0 -80 110 0 110 0 0 -300 0 -300 80 0 80 0 0 300 0 300
110 0 110 0 0 80 0 80 -300 0 -300 0 0 -80z"/>
<path d="M2897 3080 c-83 -21 -153 -80 -191 -160 -19 -42 -21 -65 -24 -317
l-3 -273 80 0 81 0 0 70 0 70 120 0 120 0 0 -70 0 -70 80 0 80 0 0 253 c0 283
-7 325 -63 399 -59 78 -185 121 -280 98z m149 -184 l34 -34 0 -116 0 -116
-120 0 -120 0 0 105 c0 152 27 195 123 195 42 0 54 -5 83 -34z"/>
<path d="M3390 2711 l0 -381 75 0 75 0 0 130 0 130 63 0 c58 0 66 -3 95 -33
39 -40 52 -81 52 -164 l0 -63 76 0 76 0 -4 99 c-3 88 -7 106 -36 162 l-32 63
24 25 c107 115 75 299 -66 376 -52 30 -56 30 -225 33 l-173 4 0 -381z m332
208 c11 -6 26 -26 34 -45 12 -29 12 -39 0 -68 -20 -47 -42 -56 -135 -56 l-81
0 0 90 0 90 81 0 c44 0 89 -5 101 -11z"/>
<path d="M4042 3013 l3 -78 113 -3 112 -3 0 -299 0 -300 75 0 75 0 0 300 0
299 113 3 112 3 0 75 0 75 -303 3 -303 2 3 -77z"/>
<path d="M510 2560 c0 -417 3 -520 13 -513 6 6 163 122 347 258 184 136 335
251 335 255 0 4 -151 119 -335 255 -184 136 -341 252 -347 258 -10 7 -13 -96
-13 -513z m328 91 c61 -45 112 -86 112 -91 0 -5 -51 -46 -112 -91 -62 -45
-128 -94 -145 -107 l-33 -24 0 222 0 222 33 -24 c17 -13 83 -62 145 -107z"/>
</g>
</svg>
