<?xml version="1.0" standalone="no"?>
<!DOCTYPE svg PUBLIC "-//W3C//DTD SVG 20010904//EN"
 "http://www.w3.org/TR/2001/REC-SVG-20010904/DTD/svg10.dtd">
<svg version="1.0" xmlns="http://www.w3.org/2000/svg"
 width="1668.000000pt" height="1686.000000pt" viewBox="0 0 1668.000000 1686.000000"
 preserveAspectRatio="xMidYMid meet">

<g transform="translate(0.000000,1686.000000) scale(0.100000,-0.100000)"
fill="#000000" stroke="none">
<path d="M12590 16743 c0 -60 11 -659 25 -1333 14 -674 25 -1234 25 -1244 0
-12 -23 10 -62 61 -35 44 -188 240 -341 436 l-277 356 -35 -16 c-24 -11 -34
-22 -30 -32 13 -41 243 -1076 240 -1080 -2 -1 -403 200 -890 449 -736 375
-889 449 -901 439 -45 -37 -61 -16 497 -686 l531 -638 -68 -2 c-38 -2 -789 26
-1669 61 -880 34 -1602 62 -1604 60 -2 -2 -4 -20 -5 -41 -1 -30 3 -38 19 -41
37 -7 1850 -423 1865 -428 9 -3 -22 -24 -75 -53 -372 -196 -717 -454 -1033
-769 l-103 -103 -117 30 c-226 58 -403 81 -617 81 -253 0 -468 -42 -641 -124
-193 -92 -295 -187 -419 -392 -42 -71 -78 -130 -79 -131 -1 -1 -59 7 -130 17
-485 72 -1027 77 -1537 14 -1916 -236 -3595 -1375 -4481 -3039 -775 -1457
-889 -3186 -312 -4763 957 -2616 3550 -4166 6302 -3767 1242 180 2386 741
3276 1605 900 875 1492 2041 1675 3300 44 303 55 471 55 845 0 375 -11 544
-55 845 -141 970 -519 1899 -1076 2649 -46 62 -87 119 -90 127 -3 7 27 70 67
138 128 222 156 326 147 541 -8 195 -62 386 -172 606 -44 88 -183 305 -240
375 l-25 31 74 62 c250 206 555 350 879 416 123 24 374 52 384 41 3 -3 -146
-208 -331 -455 -284 -379 -335 -453 -327 -469 28 -53 16 -59 471 248 238 160
434 290 435 288 2 -2 -176 -456 -394 -1010 -391 -989 -398 -1008 -377 -1021
12 -7 26 -17 33 -20 7 -5 340 405 903 1114 491 616 895 1118 898 1115 4 -4
450 -3401 452 -3438 0 -14 80 -9 80 5 0 6 38 406 85 887 47 481 110 1134 140
1450 30 316 58 592 62 612 l8 38 590 -519 590 -518 28 19 c15 11 27 24 27 29
0 6 -194 411 -430 901 -237 489 -430 893 -428 897 2 5 1585 -337 2145 -463 29
-7 32 -5 43 30 8 22 9 39 3 43 -147 98 -1181 826 -1179 829 2 2 174 57 382
122 320 100 375 120 354 128 -14 5 -314 105 -667 223 -354 118 -643 216 -643
219 1 3 480 266 1066 585 586 319 1070 583 1076 587 8 4 8 15 -2 40 -7 18 -14
34 -15 36 -1 1 -541 -140 -1200 -313 -659 -173 -1199 -314 -1201 -312 -2 1
161 265 361 586 201 320 365 586 365 590 0 13 -48 53 -57 48 -4 -2 -234 -138
-511 -302 -276 -164 -505 -296 -507 -293 -2 2 -16 251 -31 553 -14 303 -27
551 -29 553 -1 2 -18 5 -37 8 l-34 6 -224 -484 c-123 -265 -237 -511 -253
-546 -16 -35 -31 -61 -33 -60 -5 6 -584 2605 -584 2623 0 11 -11 15 -40 15
l-40 0 0 -107z m381 -2454 c11 -23 32 -76 45 -118 48 -149 89 -210 159 -242
105 -48 204 8 279 158 41 82 87 155 111 175 48 41 69 15 106 -131 46 -181 146
-232 329 -168 99 35 124 38 149 21 43 -31 21 -103 -91 -291 -70 -118 -85 -167
-69 -235 15 -66 41 -102 94 -127 60 -29 136 -27 319 9 149 30 282 41 307 26
13 -8 6 -43 -13 -61 -33 -32 -83 -63 -241 -149 -163 -89 -213 -151 -203 -257
6 -58 41 -109 104 -149 24 -15 121 -53 216 -85 216 -72 288 -104 316 -140 30
-38 28 -60 -13 -140 -47 -94 -53 -139 -25 -202 31 -72 56 -94 257 -222 130
-84 190 -153 151 -177 -14 -9 -94 -8 -156 1 -74 11 -190 39 -597 147 -412 109
-487 121 -560 93 -75 -28 -124 -119 -109 -203 8 -47 61 -172 142 -337 146
-295 190 -415 166 -453 -17 -27 -65 -26 -114 2 -25 14 -85 57 -135 97 -133
106 -191 129 -269 108 -52 -14 -107 -71 -126 -130 -9 -31 -14 -118 -17 -289
-4 -266 -13 -352 -39 -381 -17 -19 -18 -19 -40 2 -46 43 -97 219 -229 788 -40
174 -80 333 -89 353 -39 91 -126 147 -208 134 -91 -15 -93 -18 -489 -516 -217
-274 -321 -393 -374 -430 -67 -46 -85 -38 -85 35 0 48 20 119 83 290 63 175
80 244 71 294 -10 53 -20 69 -95 147 -60 62 -69 77 -69 108 0 48 26 97 120
226 105 144 133 201 133 270 0 101 -45 152 -172 195 -137 45 -147 67 -73 161
57 72 75 112 75 169 0 61 -20 103 -68 142 -45 38 -124 65 -315 108 -573 131
-795 197 -820 246 -9 15 -5 21 22 36 29 15 76 18 353 23 340 6 356 9 408 58
42 39 57 75 57 133 0 69 -30 127 -141 265 -142 179 -182 257 -147 292 18 18
56 15 128 -12 70 -25 263 -120 425 -208 212 -116 305 -135 383 -78 57 41 71
66 89 162 26 133 48 143 167 78 95 -52 149 -60 211 -30 82 40 118 126 129 311
3 52 11 109 17 127 9 27 14 30 30 22 10 -6 28 -29 40 -51z m-2259 -1411 c29
-6 55 -13 57 -14 1 -2 -11 -45 -28 -96 -64 -191 -82 -297 -87 -493 l-4 -180
-35 -21 c-48 -28 -48 -28 -32 -66 13 -32 17 -34 54 -30 36 3 41 1 47 -21 3
-14 9 -32 12 -40 3 -10 -3 -18 -18 -22 -50 -16 -268 -125 -357 -178 -52 -31
-96 -57 -98 -57 -11 0 -66 140 -86 218 -19 76 -22 113 -22 292 1 185 3 217 27
330 48 221 49 223 115 253 101 45 355 135 385 136 9 1 40 -4 70 -11z m426 -98
l192 -43 20 -63 c29 -86 25 -103 -35 -141 -98 -62 -98 -62 -92 -102 l4 -36
-221 -116 -221 -116 -3 76 c-6 134 35 343 99 511 25 65 35 81 49 77 9 -2 103
-24 208 -47z m-1112 -156 c-3 -8 -16 -70 -28 -137 -25 -146 -30 -406 -9 -532
18 -108 54 -230 92 -310 17 -37 29 -67 28 -69 -63 -44 -194 -159 -296 -260
l-132 -129 -20 24 c-31 37 -107 186 -131 259 -62 183 -88 422 -70 643 6 77 13
151 16 163 8 32 219 180 429 301 117 67 131 72 121 47z m-710 -642 c3 -332 76
-602 220 -819 l55 -83 -59 -74 c-60 -74 -218 -297 -261 -369 l-23 -37 -27 20
c-51 36 -149 149 -191 218 -114 192 -200 518 -200 757 0 64 0 65 61 137 51 61
413 428 421 428 2 0 4 -80 4 -178z m1757 31 c-7 -2 -19 -2 -25 0 -7 3 -2 5 12
5 14 0 19 -2 13 -5z m-138 -33 c-92 -27 -101 -28 -113 -13 -6 10 -9 20 -5 24
8 8 74 14 168 17 47 1 44 -1 -50 -28z m-2195 -764 c67 -274 181 -491 342 -649
98 -96 100 -105 31 -128 -52 -17 -174 -5 -260 25 -280 97 -551 342 -519 470
11 43 279 457 340 524 l21 24 12 -88 c6 -48 21 -128 33 -178z m122 -2857 c618
-124 1180 -691 1335 -1349 31 -130 42 -382 23 -511 -46 -316 -228 -582 -490
-714 -126 -64 -304 -105 -454 -105 -242 0 -560 104 -795 262 -221 149 -429
365 -565 590 -271 446 -330 952 -155 1326 190 408 611 599 1101 501z m53
-2910 c302 -71 606 -359 717 -679 50 -144 64 -344 33 -465 -52 -202 -196 -352
-390 -406 -71 -20 -253 -17 -335 5 -341 93 -639 393 -740 746 -31 107 -38 283
-16 384 64 284 300 460 591 439 33 -3 96 -13 140 -24z"/>
</g>
</svg>
